<svg
  class="alyxar-chart no-select"
  xmlns="http://www.w3.org/2000/svg"
  viewBox="0 0 1600 1000"
  aria-hidden="true"
>
  <g fill="currentColor" opacity="0.06">
    <!-- generated-style scatter -->
    <circle cx="40" cy="80" r="0.4"/><circle cx="120" cy="140" r="0.5"/>
    <circle cx="220" cy="60" r="0.3"/><circle cx="340" cy="120" r="0.4"/>
    <circle cx="480" cy="40" r="0.3"/><circle cx="620" cy="140" r="0.4"/>
    <circle cx="760" cy="60" r="0.3"/><circle cx="900" cy="120" r="0.4"/>
    <circle cx="1040" cy="40" r="0.3"/><circle cx="1180" cy="120" r="0.4"/>
    <circle cx="1320" cy="60" r="0.3"/><circle cx="1480" cy="140" r="0.4"/>

    <circle cx="60" cy="360" r="0.4"/><circle cx="180" cy="420" r="0.5"/>
    <circle cx="300" cy="340" r="0.3"/><circle cx="440" cy="400" r="0.4"/>
    <circle cx="580" cy="360" r="0.3"/><circle cx="720" cy="420" r="0.4"/>
    <circle cx="860" cy="340" r="0.3"/><circle cx="1000" cy="400" r="0.4"/>
    <circle cx="1140" cy="360" r="0.3"/><circle cx="1280" cy="420" r="0.4"/>
    <circle cx="1420" cy="340" r="0.3"/>

    <circle cx="100" cy="720" r="0.4"/><circle cx="240" cy="780" r="0.5"/>
    <circle cx="380" cy="700" r="0.3"/><circle cx="520" cy="760" r="0.4"/>
    <circle cx="660" cy="720" r="0.3"/><circle cx="800" cy="780" r="0.4"/>
    <circle cx="940" cy="700" r="0.3"/><circle cx="1080" cy="760" r="0.4"/>
    <circle cx="1220" cy="720" r="0.3"/><circle cx="1360" cy="780" r="0.4"/>
    <circle cx="1500" cy="700" r="0.3"/>
  </g>
  <g fill="currentColor">
    <!-- inner field -->
    <circle cx="800" cy="500" r="2.4" opacity="0.55"/>
    <circle cx="820" cy="480" r="1.7" opacity="0.4"/>
    <circle cx="780" cy="520" r="1.8" opacity="0.42"/>
    <circle cx="860" cy="510" r="1.4" opacity="0.32"/>
    <circle cx="770" cy="490" r="1.3" opacity="0.3"/>
    <circle cx="830" cy="530" r="1.2" opacity="0.28"/>
    <!-- spiral population -->
    <circle cx="690" cy="410" r="1.4" opacity="0.3"/>
    <circle cx="910" cy="430" r="1.3" opacity="0.28"/>
    <circle cx="970" cy="550" r="1.3" opacity="0.26"/>
    <circle cx="630" cy="560" r="1.3" opacity="0.28"/>
    <circle cx="720" cy="610" r="1.2" opacity="0.24"/>
    <circle cx="880" cy="380" r="1.2" opacity="0.24"/>
    <!-- far field -->
    <circle cx="200" cy="180" r="1.5" opacity="0.24"/>
    <circle cx="420" cy="160" r="1.3" opacity="0.22"/>
    <circle cx="1200" cy="220" r="1.6" opacity="0.26"/>
    <circle cx="1380" cy="320" r="1.2" opacity="0.2"/>
    <circle cx="260" cy="780" r="1.4" opacity="0.24"/>
    <circle cx="1180" cy="760" r="1.5" opacity="0.25"/>
    <circle cx="1440" cy="820" r="1.2" opacity="0.2"/>
  </g>
  <g stroke="currentColor" fill="none" stroke-linecap="round">
    <line x1="780" y1="520" x2="800" y2="500" stroke-width="1.3" opacity="0.4"/>
    <line x1="800" y1="500" x2="820" y2="480" stroke-width="1.3" opacity="0.4"/>
    <line x1="820" y1="480" x2="860" y2="510" stroke-width="1.1" opacity="0.34"/>
    <line x1="770" y1="490" x2="800" y2="500" stroke-width="1.0" opacity="0.3"/>
    <!-- deep triangulations -->
    <polygon points="200,180 420,160 300,260"
             stroke-width="0.8" opacity="0.2"/>
    <polygon points="1200,220 1380,320 1240,300"
             stroke-width="0.8" opacity="0.2"/>
    <polygon points="260,780 420,860 300,700"
             stroke-width="0.7" opacity="0.18"/>
  </g>
  <g stroke="currentColor" fill="none">
    <!-- primary -->
    <circle cx="800" cy="500" r="140" stroke-width="1.1" opacity="0.32"/>
    <circle cx="800" cy="500" r="260" stroke-width="0.9" opacity="0.24"/>
    <circle cx="800" cy="500" r="420" stroke-width="0.8" opacity="0.18"/>
    <!-- secondary offset -->
    <ellipse cx="800" cy="500" rx="300" ry="240"
             stroke-width="0.7" opacity="0.16"/>
    <ellipse cx="800" cy="500" rx="480" ry="390"
             stroke-width="0.6" opacity="0.12"/>
    <!-- angular grid -->
    <line x1="800" y1="500" x2="800" y2="-40" stroke-width="0.7" opacity="0.14"/>
    <line x1="800" y1="500" x2="1640" y2="500" stroke-width="0.7" opacity="0.14"/>
    <line x1="800" y1="500" x2="-40" y2="500" stroke-width="0.6" opacity="0.12"/>
    <line x1="800" y1="500" x2="1200" y2="1040" stroke-width="0.6" opacity="0.12"/>
    <line x1="800" y1="500" x2="400" y2="1000" stroke-width="0.5" opacity="0.1"/>
    <!-- arc sweeps -->
    <path d="M 160 880 A 820 820 0 0 1 920 100"
          stroke-width="0.7" opacity="0.14"/>
    <path d="M 680 1040 A 1040 1040 0 0 1 1620 260"
          stroke-width="0.6" opacity="0.12"/>
  </g>
  <g stroke="currentColor" fill="none">
    <!-- triangles -->
    <polygon points="700,420 710,400 720,420"
             stroke-width="0.8" opacity="0.26"/>
    <polygon points="910,430 920,410 930,430"
             stroke-width="0.8" opacity="0.26"/>
    <!-- chevrons -->
    <path d="M 860 510 l 10 -8 l 10 8"
          stroke-width="0.8" opacity="0.24"/>
    <path d="M 1180 760 l 10 -8 l 10 8"
          stroke-width="0.8" opacity="0.24"/>
    <!-- crosses -->
    <line x1="420" y1="160" x2="420" y2="172" stroke-width="0.8" opacity="0.22"/>
    <line x1="414" y1="166" x2="426" y2="166" stroke-width="0.8" opacity="0.22"/>
  </g>
  <g stroke="currentColor" fill="none">
    <circle cx="800" cy="500" r="18" stroke-width="1.8" opacity="0.6"/>
    <circle cx="800" cy="500" r="38" stroke-width="1.2" opacity="0.42"/>
    <circle cx="800" cy="500" r="62" stroke-width="0.9" opacity="0.3"/>
    <circle cx="800" cy="500" r="96" stroke-width="0.6" opacity="0.2"/>
    <circle cx="800" cy="500" r="140" stroke-width="0.4" opacity="0.12"/>
  </g>
</svg>